<svg id="svg" xmlns="http://www.w3.org/2000/svg" xmlns:xlink="http://www.w3.org/1999/xlink" width="400" height="400" viewBox="0, 0, 400,400" version="1.1"><g id="svgg"><path id="path0" d="M38.720 29.814 C 38.602 29.931,37.370 30.210,35.981 30.434 C 34.593 30.658,33.174 31.025,32.828 31.250 C 32.317 31.584,32.349 31.613,33.000 31.407 C 33.618 31.210,33.692 31.261,33.327 31.630 C 33.066 31.892,32.436 32.150,31.927 32.202 C 30.433 32.356,30.400 32.373,30.400 32.976 C 30.400 33.293,30.222 33.663,30.005 33.797 C 29.767 33.944,29.718 33.754,29.882 33.321 C 30.033 32.921,29.403 33.309,28.469 34.190 C 27.542 35.065,26.871 36.008,26.977 36.285 C 27.084 36.563,26.953 36.748,26.686 36.695 C 26.419 36.643,26.225 36.915,26.256 37.300 C 26.286 37.685,26.080 38.000,25.798 38.000 C 25.137 38.000,24.755 39.004,25.076 39.900 C 25.214 40.285,25.174 40.461,24.987 40.290 C 24.800 40.120,24.450 40.570,24.209 41.290 C 23.950 42.068,23.920 42.704,24.137 42.855 C 24.341 42.998,24.354 43.351,24.165 43.655 C 23.869 44.133,23.709 45.759,23.519 50.200 C 23.451 51.804,23.724 53.345,24.131 53.643 C 24.565 53.961,24.824 65.200,24.398 65.200 C 23.847 65.200,23.532 68.170,23.963 69.304 C 24.245 70.044,24.238 70.453,23.942 70.636 C 23.656 70.813,23.694 71.014,24.057 71.244 C 24.356 71.433,24.404 71.591,24.165 71.594 C 23.557 71.602,23.513 74.410,24.110 75.147 C 24.499 75.629,24.497 75.692,24.099 75.452 C 23.588 75.146,23.601 75.929,24.129 77.200 C 24.620 78.385,24.763 83.832,24.344 85.398 C 23.650 87.989,23.620 88.399,24.123 88.413 C 24.425 88.421,24.377 88.604,23.992 88.913 C 23.409 89.380,23.306 91.371,23.760 93.400 C 23.858 93.840,23.953 94.346,23.969 94.524 C 23.986 94.702,24.208 94.719,24.462 94.562 C 24.738 94.391,24.815 94.451,24.654 94.713 C 24.506 94.952,24.549 95.880,24.750 96.774 C 24.963 97.723,24.966 98.400,24.757 98.400 C 24.215 98.400,24.330 100.965,24.900 101.579 C 25.300 102.010,25.300 102.061,24.900 101.835 C 24.313 101.504,24.283 102.015,24.768 104.102 C 24.983 105.030,24.969 105.695,24.731 105.842 C 24.259 106.134,24.697 124.888,25.184 125.193 C 25.589 125.446,25.081 128.799,24.294 131.069 C 23.627 132.991,23.493 137.087,24.085 137.453 C 24.331 137.605,24.276 137.835,23.943 138.050 C 23.486 138.344,23.487 138.456,23.945 138.752 C 24.406 139.048,24.406 139.131,23.945 139.285 C 23.523 139.425,23.400 140.605,23.400 144.495 C 23.400 147.261,23.265 149.440,23.100 149.338 C 22.935 149.236,22.800 149.624,22.800 150.200 C 22.800 150.776,22.965 151.145,23.167 151.021 C 23.373 150.893,23.477 151.494,23.405 152.397 C 23.334 153.278,23.415 154.086,23.584 154.190 C 23.754 154.295,23.801 154.862,23.688 155.450 C 23.528 156.288,23.604 156.446,24.042 156.183 C 24.502 155.906,24.511 155.956,24.095 156.470 C 23.685 156.976,23.696 157.182,24.152 157.560 C 24.703 158.017,24.710 158.297,24.347 165.283 C 24.305 166.099,24.160 166.699,24.026 166.616 C 23.892 166.533,23.782 167.156,23.782 168.000 C 23.782 168.844,23.883 169.472,24.007 169.395 C 24.131 169.319,24.286 170.638,24.352 172.328 C 24.418 174.018,24.536 176.300,24.614 177.400 C 24.693 178.500,24.767 179.831,24.778 180.359 C 24.790 180.886,25.001 181.561,25.249 181.859 C 25.496 182.156,25.576 182.400,25.426 182.400 C 25.181 182.400,26.318 184.718,26.800 185.200 C 26.910 185.310,27.208 185.760,27.463 186.200 C 27.717 186.640,28.081 186.969,28.270 186.931 C 28.460 186.893,28.548 187.568,28.466 188.431 C 28.383 189.294,28.479 190.000,28.678 190.000 C 28.877 190.000,28.973 190.585,28.892 191.300 C 28.797 192.140,29.088 193.241,29.714 194.411 C 30.246 195.406,30.810 197.071,30.966 198.111 C 31.122 199.150,31.429 200.000,31.648 200.000 C 31.868 200.000,31.944 200.168,31.817 200.372 C 31.691 200.577,31.758 200.851,31.968 200.980 C 32.553 201.341,33.588 203.600,33.169 203.600 C 32.966 203.600,32.800 204.500,32.800 205.600 C 32.800 206.700,32.955 207.600,33.145 207.600 C 33.334 207.600,33.408 208.026,33.308 208.546 C 33.137 209.443,34.190 212.046,35.999 215.194 C 36.440 215.960,36.800 216.905,36.800 217.294 C 36.800 217.697,37.100 218.003,37.500 218.006 C 38.062 218.011,38.090 218.082,37.640 218.367 C 37.176 218.661,37.218 218.897,37.887 219.747 C 38.331 220.311,38.825 220.644,38.985 220.486 C 39.145 220.329,39.238 220.470,39.191 220.800 C 39.016 222.030,39.224 222.675,40.100 223.615 C 40.595 224.147,40.927 224.585,40.838 224.591 C 40.550 224.607,41.751 227.600,42.045 227.600 C 42.202 227.600,42.447 228.275,42.591 229.100 C 42.910 230.932,45.314 235.042,45.978 234.890 C 46.243 234.830,46.346 234.963,46.208 235.187 C 45.937 235.626,46.936 236.719,49.297 238.568 C 50.118 239.210,50.898 240.078,51.031 240.496 C 51.177 240.957,51.503 241.169,51.857 241.034 C 52.178 240.910,52.348 240.961,52.233 241.147 C 52.009 241.508,52.621 242.174,54.700 243.833 C 55.415 244.404,56.000 244.745,56.000 244.591 C 56.000 244.437,56.315 244.655,56.700 245.075 C 57.085 245.494,57.220 245.559,57.000 245.219 C 56.652 244.681,56.691 244.671,57.296 245.145 C 57.678 245.445,57.897 245.844,57.781 246.031 C 57.665 246.218,57.937 246.737,58.385 247.185 C 58.833 247.633,59.185 248.113,59.167 248.250 C 59.149 248.388,59.600 248.807,60.170 249.180 C 60.740 249.554,61.098 249.969,60.964 250.102 C 60.831 250.235,61.454 250.717,62.348 251.173 C 63.242 251.629,64.166 252.362,64.401 252.801 C 64.636 253.241,65.102 253.600,65.438 253.600 C 65.801 253.600,65.930 253.789,65.758 254.068 C 65.565 254.380,65.684 254.453,66.114 254.288 C 66.536 254.126,66.692 254.216,66.565 254.547 C 66.356 255.091,69.406 258.800,70.063 258.800 C 70.280 258.800,70.729 259.072,71.061 259.404 C 71.393 259.736,71.858 259.888,72.094 259.742 C 72.335 259.593,72.409 259.663,72.261 259.900 C 71.963 260.383,75.366 261.683,75.833 261.265 C 75.995 261.119,76.000 261.223,75.843 261.497 C 75.677 261.784,75.970 262.406,76.536 262.972 C 77.075 263.511,77.434 264.033,77.335 264.132 C 77.020 264.446,79.475 265.990,79.809 265.688 C 79.985 265.530,80.004 265.617,79.851 265.883 C 79.554 266.401,81.477 267.600,82.604 267.600 C 82.958 267.600,83.136 267.780,83.000 268.000 C 82.864 268.220,83.113 268.400,83.553 268.400 C 83.993 268.400,84.476 268.599,84.626 268.843 C 84.817 269.151,85.004 269.121,85.244 268.743 C 85.517 268.312,85.589 268.336,85.594 268.857 C 85.599 269.453,86.069 269.836,86.914 269.935 C 87.087 269.955,87.505 270.248,87.843 270.586 C 88.376 271.119,89.516 271.403,90.500 271.247 C 90.665 271.221,90.800 271.437,90.800 271.726 C 90.800 272.381,93.763 274.092,94.205 273.692 C 94.383 273.532,94.405 273.615,94.255 273.877 C 94.070 274.199,94.763 274.573,96.391 275.029 C 97.716 275.401,98.800 275.881,98.800 276.096 C 98.800 276.310,99.070 276.382,99.400 276.255 C 99.730 276.129,100.000 276.229,100.000 276.479 C 100.000 276.729,100.109 276.824,100.243 276.691 C 100.485 276.449,101.032 276.810,102.319 278.062 C 102.694 278.427,103.360 278.787,103.800 278.862 C 104.240 278.938,104.690 279.090,104.800 279.200 C 105.388 279.788,106.884 280.395,107.226 280.184 C 107.443 280.050,107.594 280.089,107.563 280.270 C 107.422 281.079,107.645 281.349,108.000 280.800 C 108.333 280.285,108.389 280.297,108.394 280.887 C 108.398 281.365,108.604 281.496,109.069 281.318 C 109.567 281.127,109.676 281.225,109.495 281.697 C 109.227 282.395,110.194 282.975,110.898 282.539 C 111.168 282.372,111.204 282.470,110.996 282.806 C 110.758 283.191,110.851 283.266,111.334 283.081 C 111.703 282.939,112.000 283.019,112.000 283.259 C 112.000 283.498,112.348 283.602,112.774 283.491 C 113.200 283.380,113.627 283.494,113.724 283.744 C 113.861 284.099,115.976 284.930,118.000 285.424 C 118.110 285.450,118.883 285.777,119.718 286.149 C 120.552 286.521,121.407 286.719,121.618 286.589 C 121.828 286.459,122.000 286.540,122.000 286.769 C 122.000 286.998,122.444 287.296,122.987 287.432 C 123.529 287.569,123.934 287.875,123.887 288.113 C 123.839 288.352,124.295 288.793,124.900 289.095 C 125.505 289.397,126.000 289.809,126.000 290.010 C 126.000 290.212,127.022 290.860,128.271 291.451 C 130.391 292.454,131.408 292.747,133.400 292.927 C 133.840 292.967,134.554 293.319,134.986 293.710 C 135.418 294.100,136.003 294.331,136.286 294.222 C 136.569 294.114,136.800 294.199,136.800 294.413 C 136.800 294.626,137.074 294.800,137.409 294.800 C 137.743 294.800,138.764 295.294,139.676 295.898 C 140.873 296.690,141.383 296.851,141.508 296.477 C 141.642 296.074,141.784 296.093,142.140 296.562 C 142.393 296.894,143.111 297.254,143.735 297.363 C 144.359 297.471,145.116 297.764,145.417 298.014 C 145.718 298.264,146.181 298.336,146.444 298.173 C 146.712 298.007,146.819 298.045,146.687 298.258 C 146.461 298.625,149.850 299.876,150.530 299.677 C 150.711 299.624,150.745 299.765,150.606 299.990 C 150.467 300.216,150.408 300.400,150.476 300.401 C 150.544 300.401,152.130 300.671,154.000 301.000 C 155.870 301.329,157.456 301.599,157.524 301.599 C 157.592 301.600,157.544 301.767,157.418 301.971 C 157.292 302.175,157.580 302.467,158.059 302.619 C 158.538 302.771,159.576 303.176,160.365 303.518 C 162.014 304.234,162.681 304.431,163.800 304.529 C 164.240 304.568,164.701 304.736,164.825 304.902 C 164.949 305.069,166.000 305.285,167.160 305.382 C 168.320 305.480,169.505 305.755,169.793 305.994 C 170.080 306.233,170.470 306.393,170.658 306.351 C 170.846 306.308,171.270 306.375,171.600 306.500 C 172.964 307.017,175.739 307.527,176.444 307.392 C 176.860 307.311,177.200 307.382,177.200 307.549 C 177.200 307.716,177.920 308.257,178.800 308.752 C 179.680 309.247,180.400 309.815,180.400 310.015 C 180.400 310.450,182.789 311.745,183.071 311.463 C 183.178 311.355,183.592 311.592,183.990 311.990 C 184.388 312.388,185.678 312.857,186.856 313.032 C 188.035 313.208,189.090 313.387,189.200 313.430 C 189.310 313.473,189.803 313.639,190.296 313.799 C 190.788 313.960,191.102 314.236,190.992 314.412 C 190.679 314.919,194.239 315.530,197.445 315.520 C 199.650 315.513,200.532 315.675,201.036 316.178 C 201.403 316.546,201.959 316.748,202.272 316.628 C 202.588 316.507,202.733 316.586,202.597 316.805 C 202.463 317.022,202.701 317.200,203.127 317.200 C 203.553 317.200,204.122 317.465,204.391 317.789 C 204.660 318.114,205.537 318.483,206.340 318.610 C 209.000 319.031,211.188 319.695,210.987 320.020 C 210.699 320.487,215.087 321.315,216.271 321.018 C 216.824 320.879,217.513 320.962,217.802 321.202 C 218.111 321.458,219.580 321.589,221.364 321.519 C 223.034 321.454,224.400 321.538,224.400 321.706 C 224.400 322.233,226.973 323.612,227.551 323.394 C 227.854 323.280,228.338 323.504,228.626 323.893 C 229.070 324.490,229.280 324.522,229.976 324.097 C 230.666 323.675,230.800 323.691,230.800 324.197 C 230.800 324.662,231.308 324.800,233.024 324.800 C 234.247 324.800,235.155 324.651,235.042 324.468 C 234.821 324.110,235.829 324.143,236.800 324.525 C 237.130 324.655,238.796 324.833,240.502 324.921 C 242.719 325.035,243.824 325.279,244.374 325.776 C 244.974 326.319,245.672 326.439,247.544 326.320 C 248.864 326.235,249.868 326.290,249.775 326.441 C 249.533 326.832,251.549 327.279,252.080 326.950 C 252.348 326.785,252.411 326.859,252.238 327.138 C 252.057 327.432,252.262 327.600,252.803 327.600 C 253.270 327.600,253.971 327.770,254.359 327.978 C 254.944 328.291,258.215 328.748,260.800 328.879 C 261.130 328.895,261.625 329.087,261.900 329.304 C 262.175 329.520,262.400 329.552,262.400 329.373 C 262.400 329.194,262.653 329.394,262.963 329.817 C 263.401 330.416,264.022 330.588,265.762 330.593 C 266.993 330.597,267.999 330.723,268.000 330.873 C 268.000 331.023,268.405 331.270,268.900 331.420 C 269.395 331.571,270.109 331.966,270.486 332.297 C 270.864 332.628,271.970 332.922,272.945 332.950 C 273.920 332.977,274.649 333.112,274.566 333.249 C 274.483 333.387,275.241 333.515,276.250 333.536 C 277.259 333.556,278.291 333.734,278.542 333.932 C 279.213 334.460,282.400 334.795,282.400 334.338 C 282.400 334.126,282.583 334.066,282.807 334.204 C 283.030 334.342,283.124 334.600,283.014 334.777 C 282.805 335.116,285.045 335.588,286.900 335.596 C 287.505 335.598,288.000 335.799,288.000 336.043 C 288.000 336.286,288.279 336.378,288.621 336.247 C 289.016 336.096,289.141 336.172,288.965 336.456 C 288.799 336.725,288.909 336.830,289.241 336.720 C 289.544 336.619,290.049 336.791,290.361 337.104 C 290.695 337.438,291.455 337.611,292.202 337.524 C 292.906 337.442,293.688 337.604,293.953 337.888 C 294.528 338.503,295.200 338.558,295.200 337.990 C 295.200 337.755,295.704 337.840,296.380 338.190 C 297.686 338.865,303.200 339.054,303.200 338.423 C 303.200 338.216,303.937 338.465,304.837 338.976 C 305.737 339.487,306.772 339.863,307.137 339.810 C 307.502 339.758,307.575 339.792,307.300 339.887 C 307.025 339.981,306.800 340.236,306.800 340.453 C 306.800 340.670,307.025 340.718,307.300 340.559 C 307.590 340.392,307.660 340.424,307.467 340.636 C 307.283 340.836,307.013 341.009,306.867 341.019 C 306.201 341.067,302.002 343.224,302.046 343.495 C 302.166 344.243,301.959 344.555,301.659 344.081 C 301.400 343.673,301.209 343.711,300.765 344.258 C 300.273 344.864,300.278 344.910,300.800 344.613 C 301.152 344.413,301.264 344.420,301.072 344.631 C 300.891 344.828,300.441 344.992,300.072 344.995 C 299.669 344.998,299.424 345.291,299.460 345.727 C 299.493 346.126,299.426 346.359,299.310 346.244 C 298.710 345.643,292.400 350.251,292.400 351.290 C 292.400 351.522,292.102 351.930,291.738 352.196 C 291.373 352.463,291.047 353.022,291.013 353.440 C 290.979 353.858,290.729 354.609,290.457 355.108 C 290.185 355.608,290.060 356.174,290.179 356.366 C 290.298 356.559,290.126 356.819,289.798 356.946 C 289.105 357.211,288.983 358.400,289.649 358.400 C 289.966 358.400,289.957 358.570,289.617 358.980 C 289.301 359.360,289.218 360.290,289.373 361.680 C 289.738 364.932,289.817 365.240,290.379 365.587 C 290.667 365.765,290.788 366.096,290.648 366.323 C 290.507 366.550,290.656 366.999,290.977 367.320 C 291.299 367.642,291.479 367.987,291.379 368.088 C 290.980 368.487,295.584 372.743,296.948 373.236 C 297.746 373.524,298.400 373.908,298.400 374.088 C 298.400 374.268,298.854 374.333,299.408 374.233 C 300.059 374.115,300.323 374.202,300.151 374.479 C 299.976 374.762,300.313 374.845,301.143 374.723 C 301.834 374.622,302.400 374.687,302.400 374.869 C 302.400 375.051,303.120 375.200,304.000 375.200 C 304.880 375.200,305.600 375.045,305.600 374.855 C 305.600 374.666,306.050 374.597,306.600 374.702 C 307.170 374.811,307.600 374.707,307.600 374.459 C 307.600 374.220,307.896 374.139,308.258 374.278 C 308.650 374.428,309.116 374.256,309.413 373.850 C 309.686 373.476,310.065 373.220,310.255 373.280 C 310.624 373.398,313.266 372.399,313.600 372.016 C 313.710 371.890,314.679 371.559,315.753 371.281 C 317.491 370.830,319.717 369.562,319.486 369.153 C 319.439 369.069,319.469 369.039,319.553 369.086 C 319.861 369.260,321.261 368.327,321.033 368.100 C 320.904 367.970,321.743 367.388,322.899 366.805 C 327.070 364.702,328.400 363.741,328.400 362.829 C 328.400 362.593,328.571 362.400,328.779 362.400 C 328.988 362.400,329.624 361.969,330.193 361.441 C 330.838 360.844,331.524 360.560,332.014 360.688 C 332.446 360.801,332.800 360.713,332.800 360.493 C 332.800 360.147,333.350 359.882,334.504 359.672 C 336.834 359.247,342.104 353.940,341.373 352.756 C 341.192 352.464,341.246 352.381,341.509 352.544 C 341.748 352.691,342.051 352.468,342.185 352.048 C 342.336 351.572,342.950 351.186,343.814 351.024 C 344.576 350.881,345.200 350.598,345.200 350.394 C 345.200 350.191,345.459 350.124,345.775 350.246 C 346.092 350.367,346.669 350.095,347.057 349.642 C 347.505 349.118,347.860 348.974,348.029 349.246 C 348.283 349.657,350.704 348.709,351.200 348.004 C 351.310 347.848,351.798 347.510,352.285 347.254 C 352.828 346.968,353.081 346.556,352.941 346.189 C 352.779 345.769,352.897 345.662,353.335 345.830 C 353.724 345.980,354.419 345.599,355.179 344.821 C 355.851 344.134,356.400 343.705,356.400 343.867 C 356.400 344.029,357.120 343.412,358.000 342.496 C 358.880 341.580,359.600 340.554,359.600 340.215 C 359.600 339.877,359.791 339.600,360.024 339.600 C 360.257 339.600,360.344 339.432,360.217 339.228 C 360.091 339.023,360.182 338.735,360.421 338.587 C 360.659 338.440,360.760 338.073,360.645 337.772 C 360.529 337.472,360.607 337.119,360.817 336.989 C 361.028 336.859,361.197 335.278,361.194 333.476 C 361.191 331.674,361.047 330.422,360.874 330.694 C 360.689 330.985,360.560 330.584,360.560 329.721 C 360.560 328.914,360.344 328.181,360.080 328.093 C 359.816 328.005,359.600 327.597,359.600 327.185 C 359.600 326.117,358.746 324.386,358.342 324.636 C 358.154 324.752,358.000 324.466,358.000 324.000 C 358.000 323.523,357.821 323.264,357.590 323.406 C 357.365 323.545,357.206 323.511,357.237 323.330 C 357.421 322.274,357.146 319.986,356.858 320.164 C 356.670 320.281,356.601 319.931,356.704 319.388 C 356.808 318.845,356.712 318.400,356.491 318.400 C 356.270 318.400,356.114 318.085,356.144 317.700 C 356.175 317.311,355.964 317.049,355.670 317.110 C 355.379 317.170,355.243 317.054,355.368 316.852 C 355.704 316.309,354.672 314.529,353.478 313.590 C 352.905 313.139,352.530 312.526,352.645 312.227 C 352.760 311.928,352.527 311.439,352.127 311.142 C 351.727 310.844,351.351 310.162,351.292 309.627 C 351.232 309.092,350.772 308.102,350.268 307.427 C 349.764 306.752,348.757 305.030,348.029 303.600 C 347.301 302.170,346.472 300.730,346.186 300.400 C 345.901 300.070,345.542 299.124,345.389 298.299 C 345.140 296.956,344.016 295.107,342.234 293.109 C 341.424 292.201,340.402 289.723,340.394 288.651 C 340.386 287.474,339.258 284.333,338.568 283.568 C 338.255 283.220,338.113 282.820,338.253 282.680 C 338.393 282.540,338.295 281.911,338.034 281.283 C 337.774 280.654,337.531 279.748,337.495 279.270 C 337.459 278.791,337.277 278.400,337.091 278.400 C 336.905 278.400,336.847 278.248,336.961 278.062 C 337.253 277.590,336.423 274.739,336.059 274.963 C 335.896 275.064,335.500 274.982,335.181 274.780 C 334.802 274.540,334.770 274.410,335.087 274.406 C 335.356 274.403,335.472 274.131,335.346 273.802 C 335.219 273.474,334.957 273.303,334.763 273.423 C 334.568 273.543,334.516 273.362,334.647 273.021 C 334.864 272.458,334.413 272.202,333.481 272.359 C 333.306 272.388,333.216 272.105,333.281 271.729 C 333.350 271.331,333.000 270.841,332.446 270.558 C 331.921 270.291,331.381 269.895,331.246 269.678 C 330.258 268.096,322.417 266.730,321.038 267.900 C 320.332 268.499,320.288 268.504,320.730 267.931 C 321.267 267.236,319.996 267.288,319.000 268.003 C 318.780 268.161,318.089 268.412,317.464 268.562 C 316.637 268.759,316.394 269.008,316.573 269.473 C 316.771 269.991,316.709 270.022,316.245 269.637 C 315.854 269.313,315.589 269.295,315.412 269.581 C 315.269 269.811,315.298 270.007,315.476 270.016 C 315.654 270.024,315.213 270.286,314.496 270.598 C 313.097 271.206,311.233 273.080,311.213 273.900 C 311.206 274.175,311.001 274.400,310.757 274.400 C 310.514 274.400,310.422 274.679,310.553 275.021 C 310.684 275.362,310.646 275.552,310.469 275.443 C 309.842 275.055,308.674 277.746,308.637 279.665 C 308.617 280.727,308.478 281.596,308.329 281.598 C 307.871 281.602,307.745 282.930,308.063 284.414 C 308.229 285.192,308.480 287.435,308.619 289.397 C 308.805 292.006,309.052 293.113,309.537 293.512 C 309.902 293.813,309.975 293.945,309.700 293.806 C 308.930 293.416,309.098 294.698,309.925 295.525 C 310.324 295.924,310.579 296.464,310.492 296.725 C 310.405 296.986,310.539 297.200,310.790 297.200 C 311.042 297.200,311.168 297.335,311.071 297.500 C 310.752 298.041,311.561 299.600,312.159 299.600 C 312.481 299.600,312.806 300.005,312.882 300.500 C 312.957 300.995,313.253 301.351,313.539 301.290 C 313.825 301.230,313.941 301.373,313.795 301.608 C 313.650 301.843,313.722 302.265,313.955 302.545 C 314.187 302.826,314.661 304.303,315.007 305.828 C 315.353 307.352,315.913 309.200,316.252 309.932 C 316.591 310.665,316.763 311.370,316.634 311.499 C 316.505 311.628,316.400 311.544,316.400 311.313 C 316.400 311.056,314.968 310.863,312.700 310.815 C 307.596 310.708,307.012 310.631,305.922 309.917 C 305.397 309.573,303.895 309.071,302.584 308.802 C 301.273 308.533,299.994 308.146,299.742 307.943 C 299.490 307.739,299.130 307.609,298.942 307.654 C 298.020 307.877,294.055 307.047,291.800 306.160 C 291.360 305.987,290.820 305.824,290.600 305.798 C 289.912 305.717,285.446 304.394,284.475 303.985 C 283.764 303.685,283.617 303.711,283.843 304.097 C 284.005 304.374,283.777 304.285,283.337 303.900 C 282.404 303.083,281.844 302.984,282.206 303.700 C 282.345 303.975,282.198 303.880,281.878 303.489 C 281.471 302.993,280.470 302.703,278.548 302.526 C 277.037 302.387,275.170 301.953,274.400 301.561 C 273.630 301.170,271.594 300.659,269.875 300.425 C 268.156 300.192,266.381 299.804,265.932 299.564 C 265.483 299.323,264.324 299.189,263.357 299.266 C 262.391 299.343,261.600 299.258,261.600 299.078 C 261.600 298.897,261.285 298.789,260.900 298.836 C 260.515 298.884,259.930 298.818,259.600 298.689 C 259.270 298.560,257.410 298.384,255.467 298.297 C 253.524 298.211,251.814 297.960,251.667 297.740 C 251.520 297.520,250.646 297.363,249.725 297.391 C 248.804 297.419,248.140 297.298,248.249 297.121 C 248.358 296.945,248.156 296.800,247.800 296.800 C 247.444 296.800,247.251 296.960,247.372 297.155 C 247.492 297.350,247.233 297.603,246.795 297.717 C 246.289 297.849,246.096 297.768,246.265 297.495 C 246.431 297.226,246.291 297.156,245.891 297.310 C 245.540 297.445,245.195 297.396,245.126 297.202 C 245.057 297.008,244.499 296.783,243.887 296.703 C 243.275 296.622,242.385 296.222,241.909 295.815 C 241.294 295.288,240.995 295.216,240.879 295.564 C 240.772 295.883,240.511 295.765,240.135 295.228 C 239.816 294.773,239.205 294.400,238.777 294.400 C 238.350 294.400,238.000 294.209,238.000 293.976 C 238.000 293.729,237.497 293.631,236.798 293.741 C 236.136 293.846,235.690 293.778,235.805 293.591 C 235.921 293.404,234.167 293.261,231.908 293.273 C 227.927 293.294,222.869 292.464,223.449 291.885 C 223.722 291.611,222.742 291.435,221.700 291.570 C 221.425 291.606,221.200 291.429,221.200 291.177 C 221.200 290.880,220.568 290.770,219.401 290.863 C 218.411 290.941,217.535 290.824,217.453 290.603 C 217.359 290.349,216.990 290.386,216.452 290.703 C 215.984 290.980,215.600 291.054,215.600 290.868 C 215.600 290.510,213.847 289.600,213.158 289.600 C 212.935 289.600,212.891 289.825,213.061 290.100 C 213.230 290.375,212.887 290.285,212.299 289.900 C 211.141 289.143,210.631 289.004,210.959 289.533 C 211.072 289.717,210.911 289.867,210.600 289.867 C 210.289 289.867,210.128 289.717,210.241 289.533 C 210.355 289.350,210.156 289.200,209.800 289.200 C 209.444 289.200,209.267 289.384,209.406 289.610 C 209.687 290.064,206.947 288.614,206.000 287.808 C 204.787 286.774,202.700 285.915,202.436 286.341 C 202.272 286.607,201.965 286.623,201.589 286.385 C 201.081 286.064,201.080 286.011,201.580 286.006 C 202.042 286.001,202.059 285.899,201.663 285.503 C 201.268 285.108,201.090 285.128,200.789 285.603 C 200.582 285.932,200.409 286.004,200.406 285.764 C 200.399 285.233,198.660 284.400,197.558 284.400 C 197.115 284.400,196.864 284.220,197.000 283.999 C 197.382 283.382,195.291 282.746,192.240 282.550 C 190.723 282.453,189.283 282.250,189.040 282.098 C 188.798 281.946,188.420 281.788,188.200 281.746 C 187.980 281.704,187.035 281.392,186.100 281.052 C 185.165 280.713,184.400 280.551,184.400 280.693 C 184.400 280.835,184.049 280.574,183.619 280.113 C 182.955 279.400,182.135 279.032,179.400 278.221 C 179.180 278.155,178.868 278.071,178.707 278.034 C 178.546 277.996,177.802 277.709,177.053 277.396 C 176.304 277.084,175.094 276.722,174.364 276.594 C 173.633 276.465,172.452 276.083,171.738 275.744 C 171.024 275.405,170.251 275.245,170.020 275.388 C 169.789 275.530,169.600 275.458,169.600 275.226 C 169.600 274.966,168.563 274.833,166.884 274.877 C 164.675 274.934,163.946 274.788,162.984 274.095 C 162.333 273.626,160.668 272.956,159.285 272.607 C 157.902 272.257,156.192 271.618,155.485 271.187 C 154.778 270.756,153.885 270.402,153.500 270.401 C 153.115 270.401,152.800 270.199,152.800 269.953 C 152.800 269.704,152.447 269.599,151.999 269.716 C 151.559 269.831,151.286 269.784,151.393 269.611 C 151.577 269.314,149.372 268.621,148.670 268.756 C 148.489 268.791,148.455 268.634,148.596 268.407 C 148.739 268.176,148.063 267.656,147.062 267.227 C 146.078 266.805,145.122 266.200,144.937 265.883 C 144.329 264.841,139.871 262.865,137.489 262.581 C 135.860 262.386,135.063 262.091,134.789 261.580 C 134.576 261.181,134.038 260.739,133.595 260.598 C 133.151 260.458,132.882 260.191,132.996 260.006 C 133.277 259.551,129.583 257.521,128.930 257.772 C 128.644 257.881,128.452 257.818,128.505 257.630 C 128.652 257.102,125.516 254.747,124.952 254.963 C 124.677 255.069,124.390 254.969,124.314 254.741 C 124.238 254.513,123.701 254.298,123.121 254.263 C 122.542 254.228,122.141 254.126,122.231 254.036 C 122.710 253.556,115.484 249.872,114.968 250.334 C 114.805 250.480,114.781 250.408,114.914 250.173 C 115.177 249.711,112.894 248.172,112.512 248.555 C 112.384 248.683,112.070 248.502,111.815 248.153 C 111.560 247.804,110.774 247.473,110.067 247.418 C 109.361 247.362,108.652 247.172,108.492 246.994 C 108.331 246.817,108.453 246.818,108.762 246.998 C 109.149 247.222,109.231 247.174,109.025 246.841 C 108.861 246.575,108.529 246.424,108.288 246.504 C 108.047 246.584,107.507 246.307,107.088 245.888 C 106.650 245.450,106.001 245.211,105.562 245.326 C 105.143 245.436,104.900 245.362,105.023 245.163 C 105.146 244.963,104.967 244.800,104.624 244.800 C 104.281 244.800,103.670 244.485,103.266 244.100 C 102.273 243.152,100.933 242.400,100.239 242.400 C 99.924 242.400,99.607 242.236,99.533 242.037 C 99.460 241.837,99.040 241.612,98.600 241.537 C 98.160 241.461,97.617 241.167,97.392 240.882 C 97.168 240.597,96.583 240.334,96.092 240.297 C 95.602 240.260,95.200 239.998,95.200 239.715 C 95.200 239.432,95.065 239.238,94.900 239.284 C 94.208 239.477,91.663 237.883,91.467 237.133 C 91.327 236.597,91.074 236.423,90.727 236.624 C 90.437 236.791,90.337 236.778,90.504 236.594 C 90.821 236.244,89.316 234.400,88.714 234.400 C 88.523 234.400,87.987 234.046,87.523 233.614 C 87.059 233.181,86.526 232.922,86.339 233.037 C 86.153 233.153,86.000 233.062,86.000 232.836 C 86.000 232.610,85.728 232.529,85.395 232.657 C 84.972 232.820,84.861 232.705,85.026 232.276 C 85.332 231.478,84.535 230.000,83.798 230.000 C 83.483 230.000,83.315 229.767,83.424 229.482 C 83.533 229.197,83.253 228.612,82.801 228.182 C 82.348 227.752,81.508 226.910,80.933 226.311 C 80.358 225.712,79.733 225.318,79.544 225.435 C 79.355 225.552,79.200 225.453,79.200 225.215 C 79.200 224.977,78.756 224.580,78.213 224.333 C 77.669 224.085,77.299 223.764,77.389 223.618 C 77.479 223.472,77.024 222.915,76.377 222.381 C 75.729 221.846,75.200 221.258,75.200 221.073 C 75.200 220.617,72.198 217.762,71.394 217.453 C 71.040 217.317,70.859 217.028,70.993 216.811 C 71.333 216.261,70.487 214.800,69.829 214.800 C 69.531 214.800,69.166 214.317,69.017 213.727 C 68.869 213.137,68.310 212.133,67.774 211.496 C 67.238 210.860,66.800 209.982,66.800 209.546 C 66.800 209.110,66.622 208.863,66.405 208.997 C 66.183 209.134,66.108 208.984,66.234 208.657 C 66.357 208.335,66.172 207.520,65.823 206.844 C 65.473 206.169,64.938 204.667,64.633 203.508 C 64.304 202.256,63.881 201.447,63.590 201.516 C 63.316 201.582,63.196 201.389,63.315 201.077 C 63.933 199.467,61.784 194.079,60.019 192.812 C 59.569 192.488,59.197 191.948,59.194 191.612 C 59.188 191.070,59.141 191.069,58.782 191.600 C 58.478 192.049,58.438 191.933,58.622 191.138 C 58.782 190.447,58.621 189.699,58.164 189.001 C 57.777 188.410,57.411 187.448,57.351 186.863 C 57.097 184.384,56.693 183.006,56.067 182.490 C 55.617 182.120,55.596 182.041,56.000 182.247 C 56.516 182.511,56.523 182.459,56.053 181.879 C 55.688 181.429,55.471 179.841,55.401 177.102 C 55.267 171.801,55.298 172.000,54.600 172.000 C 54.270 172.000,54.000 171.809,54.000 171.576 C 54.000 171.343,54.208 171.282,54.463 171.439 C 54.792 171.642,54.840 171.446,54.630 170.763 C 54.467 170.233,54.351 169.170,54.372 168.400 C 54.397 167.471,54.292 167.180,54.061 167.533 C 53.818 167.904,53.710 167.721,53.705 166.933 C 53.697 165.463,53.186 160.347,52.983 159.700 C 52.896 159.425,52.999 159.200,53.213 159.200 C 53.426 159.200,53.600 158.420,53.600 157.467 C 53.600 156.513,53.725 155.608,53.878 155.455 C 54.549 154.784,55.164 143.600,54.530 143.600 C 54.337 143.600,54.249 142.864,54.335 141.965 C 54.420 141.066,54.290 140.130,54.045 139.885 C 53.518 139.358,53.446 138.658,53.951 138.970 C 54.366 139.226,54.803 137.299,54.794 135.250 C 54.789 134.167,54.690 133.952,54.400 134.400 C 54.069 134.913,54.011 134.898,54.006 134.300 C 54.003 133.915,54.194 133.600,54.432 133.600 C 54.985 133.600,54.509 131.154,53.848 130.600 C 53.586 130.380,53.431 129.907,53.505 129.549 C 53.579 129.190,53.363 128.620,53.024 128.281 C 52.649 127.906,52.574 127.609,52.832 127.523 C 53.090 127.437,53.313 125.402,53.403 122.311 C 53.484 119.522,53.750 116.866,53.995 116.409 C 54.526 115.418,54.474 108.120,53.929 107.082 C 53.320 105.920,53.353 96.179,53.969 95.437 C 54.255 95.092,54.385 94.538,54.257 94.205 C 54.130 93.872,54.199 93.600,54.413 93.600 C 54.635 93.600,54.788 92.110,54.772 90.100 C 54.752 87.597,54.637 86.828,54.368 87.400 C 54.088 87.994,54.049 87.813,54.215 86.695 C 54.373 85.629,54.279 85.128,53.892 84.980 C 53.354 84.774,53.518 81.561,54.236 78.250 C 54.431 77.350,54.368 77.169,53.943 77.419 C 53.644 77.594,53.731 77.360,54.135 76.898 C 54.749 76.198,54.836 75.607,54.658 73.329 C 54.540 71.828,54.389 69.198,54.322 67.485 C 54.255 65.772,54.020 64.242,53.800 64.085 C 53.442 63.830,53.272 63.035,53.182 61.200 C 53.136 60.261,53.489 58.034,54.134 55.200 C 54.992 51.427,55.012 42.983,54.166 41.692 C 53.700 40.980,53.669 40.780,54.059 40.980 C 54.356 41.134,54.314 41.021,53.965 40.730 C 53.616 40.438,53.399 39.996,53.483 39.746 C 53.567 39.497,53.366 39.023,53.037 38.694 C 52.708 38.365,52.542 37.991,52.669 37.865 C 52.967 37.566,50.975 35.186,49.744 34.370 C 49.221 34.023,48.911 33.623,49.054 33.479 C 49.197 33.336,48.974 33.092,48.557 32.937 C 48.141 32.783,47.170 32.245,46.400 31.744 C 45.630 31.242,44.280 30.738,43.400 30.624 C 42.520 30.511,41.171 30.234,40.403 30.009 C 38.755 29.527,38.980 29.553,38.720 29.814 " stroke="none" fill="#9ca4b4" fill-rule="evenodd"></path><path id="path1" d="M32.404 31.557 C 31.829 31.717,31.593 31.948,31.845 32.104 C 32.085 32.253,32.624 32.116,33.041 31.800 C 33.877 31.167,33.846 31.155,32.404 31.557 M23.693 46.400 C 23.693 47.170,23.775 47.485,23.876 47.100 C 23.976 46.715,23.976 46.085,23.876 45.700 C 23.775 45.315,23.693 45.630,23.693 46.400 M53.496 100.356 C 53.387 100.771,53.453 101.356,53.643 101.656 C 53.877 102.026,53.990 101.784,53.994 100.900 C 54.001 99.445,53.793 99.218,53.496 100.356 M165.200 274.765 C 165.200 275.171,166.223 275.111,166.655 274.678 C 166.808 274.525,166.543 274.400,166.067 274.400 C 165.590 274.400,165.200 274.564,165.200 274.765 " stroke="none" fill="#a0a4b4" fill-rule="evenodd"></path></g></svg>