<svg id="svg" version="1.1" xmlns="http://www.w3.org/2000/svg" xmlns:xlink="http://www.w3.org/1999/xlink" width="400" height="410.42084168336675" viewBox="0, 0, 400,410.42084168336675"><g id="svgg"><path id="path0" d="M93.200 26.391 C 93.200 26.606,95.379 33.491,98.041 41.691 C 100.704 49.891,103.727 59.210,104.758 62.400 L 106.632 68.200 131.004 68.200 L 155.375 68.200 162.087 47.800 C 165.779 36.580,168.902 27.085,169.027 26.700 C 169.242 26.037,167.263 26.000,131.227 26.000 C 106.718 26.000,93.200 26.139,93.200 26.391 M239.420 26.900 C 239.842 28.283,243.880 40.799,248.583 55.300 L 252.831 68.400 276.934 68.400 L 301.037 68.400 307.720 47.700 C 311.396 36.315,314.402 26.775,314.402 26.500 C 314.400 26.104,306.607 26.000,276.773 26.000 L 239.146 26.000 239.420 26.900 M163.066 202.700 C 162.585 203.497,156.800 221.836,156.800 222.564 C 156.800 223.024,158.425 228.395,160.411 234.500 L 164.023 245.600 211.254 245.600 C 248.866 245.600,258.450 245.498,258.311 245.100 C 258.216 244.825,255.108 235.330,251.406 224.000 C 247.703 212.670,244.500 203.175,244.288 202.900 C 243.853 202.337,163.405 202.139,163.066 202.700 " stroke="none" fill="#fc4c44" fill-rule="evenodd"></path><path id="path1" d="M40.000 26.145 C 40.000 26.445,42.596 34.590,45.770 44.245 C 99.096 206.497,104.000 221.495,104.000 222.344 C 104.000 222.699,97.228 243.602,88.950 268.795 C 56.167 368.574,51.200 383.768,51.200 384.277 C 51.200 384.711,55.980 384.787,77.882 384.703 L 104.564 384.600 117.582 344.300 C 124.742 322.135,130.695 304.000,130.810 304.000 C 130.926 304.000,136.956 322.089,144.210 344.199 L 157.400 384.398 183.300 384.399 C 198.896 384.400,209.200 384.253,209.200 384.030 C 209.200 383.492,200.377 356.364,199.962 355.624 C 199.769 355.281,194.823 340.150,188.971 322.000 C 176.210 282.419,165.720 250.242,160.610 235.000 C 158.544 228.840,156.842 223.338,156.827 222.772 C 156.801 221.776,161.923 205.417,163.019 203.000 C 163.318 202.340,171.669 176.690,181.578 146.000 C 191.486 115.310,199.776 89.840,200.000 89.400 C 200.225 88.960,201.106 86.530,201.959 84.000 C 202.851 81.353,203.611 79.655,203.750 80.000 C 203.882 80.330,212.995 108.011,224.000 141.513 C 235.005 175.015,244.189 202.735,244.409 203.113 C 244.988 204.107,258.028 243.993,258.196 245.286 C 258.274 245.884,268.567 277.518,281.069 315.585 L 303.800 384.797 329.500 384.799 C 351.321 384.800,355.200 384.715,355.200 384.237 C 355.200 383.928,353.953 379.833,352.428 375.137 C 344.646 351.167,298.268 207.566,295.370 198.468 C 283.289 160.538,253.418 68.577,253.143 68.468 C 252.845 68.350,250.110 60.124,241.783 34.300 L 239.107 26.000 204.177 26.000 L 169.248 26.000 162.385 46.900 C 158.610 58.395,155.288 68.070,155.003 68.400 C 154.717 68.730,149.225 85.020,142.798 104.600 C 136.371 124.180,130.997 140.405,130.856 140.655 C 130.715 140.905,125.493 125.245,119.251 105.855 C 113.009 86.465,107.497 69.700,107.002 68.600 C 106.129 66.662,94.557 31.333,93.539 27.500 L 93.034 25.600 66.517 25.600 C 44.395 25.600,40.000 25.690,40.000 26.145 " stroke="none" fill="#fcfcfc" fill-rule="evenodd"></path></g></svg>